<svg class="icon" viewBox="0 0 1024 1024" xmlns="http://www.w3.org/2000/svg" width="48" height="48"><defs><style/></defs><path d="M812.373 1024H211.627C95.573 1024 0 928.427 0 812.373V211.627C0 95.573 95.573 0 211.627 0h600.746C928.427 0 1024 95.573 1024 211.627v600.746C1024 928.427 928.427 1024 812.373 1024z"/><path d="M477.867 375.467l-47.787 184.32c-20.48 88.746-40.96 150.186-61.44 184.32-20.48 40.96-40.96 68.266-75.093 88.746s-61.44 27.307-95.574 27.307c-20.48 0-40.96-6.827-47.786-13.653-13.654-6.827-13.654-20.48-13.654-27.307 0-13.653 6.827-20.48 13.654-27.307 6.826-6.826 20.48-13.653 34.133-13.653s20.48 0 27.307 6.827 6.826 13.653 6.826 20.48c0 6.826 0 13.653-6.826 20.48l-6.827 6.826h6.827c6.826 0 13.653 0 20.48-6.826 13.653-13.654 27.306-27.307 34.133-47.787 6.827-13.653 13.653-40.96 27.307-95.573l81.92-314.027h-54.614l13.654-47.787c20.48 0 34.133 0 40.96-6.826 6.826-6.827 20.48-13.654 27.306-34.134 27.307-54.613 61.44-88.746 88.747-116.053 34.133-20.48 68.267-34.133 109.227-34.133 27.306 0 40.96 6.826 54.613 13.653 13.653 6.827 20.48 20.48 20.48 40.96 0 13.653-6.827 27.307-13.653 34.133-6.827 6.827-13.654 13.654-27.307 13.654s-20.48 0-27.307-6.827c-6.826-6.827-13.653-13.653-13.653-20.48s0-13.653 6.827-20.48c6.826-6.827 6.826-13.653 6.826-13.653v-6.827h-6.826c-13.654 0-34.134 6.827-47.787 27.307-27.307 34.133-47.787 81.92-61.44 143.36h54.613l-13.653 47.786-54.613-6.826zm88.746 20.48l116.054-20.48c20.48 34.133 34.133 68.266 40.96 109.226 20.48-34.133 34.133-54.613 47.786-68.266l34.134-34.134c6.826-6.826 20.48-6.826 27.306-6.826 13.654 0 20.48 0 27.307 6.826s6.827 13.654 6.827 27.307 0 20.48-6.827 27.307-13.653 6.826-27.307 6.826c-6.826 0-13.653 0-27.306-6.826-6.827 0-13.654-6.827-20.48-6.827-6.827 0-20.48 0-27.307 6.827-13.653 6.826-27.307 27.306-40.96 54.613 20.48 68.267 34.133 102.4 47.787 122.88 6.826 6.827 13.653 13.653 20.48 13.653 6.826 0 13.653 0 13.653-6.826 6.827-6.827 13.653-13.654 27.307-34.134l13.653 6.827c-20.48 34.133-40.96 54.613-54.613 68.267-13.654 6.826-27.307 13.653-40.96 13.653-13.654 0-27.307 0-34.134-6.827-6.826-6.826-20.48-13.653-27.306-27.306-6.827-13.654-13.654-34.134-27.307-68.267-27.307 34.133-47.787 54.613-61.44 68.267s-27.307 27.306-34.133 27.306c-6.827 6.827-20.48 6.827-27.307 6.827-13.653 0-20.48 0-27.307-6.827-6.826-6.826-6.826-13.653-6.826-27.306s6.826-20.48 13.653-27.307c6.827-6.827 13.653-13.653 27.307-13.653 6.826 0 13.653 0 20.48 6.826 13.653 6.827 20.48 6.827 20.48 6.827 6.826 0 13.653 0 20.48-6.827 6.826 0 13.653-13.653 27.306-20.48 6.827-6.826 20.48-20.48 34.134-40.96-20.48-75.093-34.134-122.88-47.787-136.533-6.827-6.827-20.48-13.653-27.307-13.653h-20.48z"/></svg>