<svg class="icon" viewBox="0 0 1024 1024" xmlns="http://www.w3.org/2000/svg" width="128" height="128"><defs><style/></defs><path d="M509.867 889.6c-17.067 0-32-14.933-32-32L480 492.8l320-179.2c14.933-8.533 34.133-2.133 42.667 12.8 8.533 14.933 4.266 34.133-12.8 42.667l-288 162.133-2.134 328.533c2.134 17.067-10.666 29.867-29.866 29.867z"/><path d="M512 544c-4.267 0-10.667-2.133-14.933-4.267L185.6 369.067c-14.933-8.534-21.333-27.734-12.8-42.667s27.733-21.333 42.667-12.8l311.466 170.667c14.934 8.533 21.334 27.733 12.8 42.666C533.333 537.6 522.667 544 512 544z"/><path d="M512 889.6c-4.267 0-10.667-2.133-14.933-4.267L172.8 721.067c-10.667-6.4-17.067-17.067-17.067-27.734v-352c0-17.066 14.934-32 32-32s32 14.934 32 32v332.8l294.4 149.334 294.4-149.334v-332.8c0-17.066 14.934-32 32-32s32 14.934 32 32v352c0 12.8-6.4 23.467-17.066 27.734l-326.4 164.266c-6.4 4.267-12.8 4.267-17.067 4.267z"/><path d="M838.4 373.333c-4.267 0-10.667-2.133-14.933-4.266L512 200.533 202.667 369.067c-14.934 8.533-34.134 2.133-42.667-12.8-10.667-14.934-4.267-34.134 10.667-42.667l326.4-177.067c8.533-4.266 21.333-4.266 29.866 0l326.4 177.067c14.934 8.533 21.334 27.733 12.8 42.667-6.4 10.666-17.066 17.066-27.733 17.066z"/></svg>