<?xml version="1.0" standalone="no"?><!DOCTYPE svg PUBLIC "-//W3C//DTD SVG 1.1//EN" "http://www.w3.org/Graphics/SVG/1.1/DTD/svg11.dtd"><svg t="1578980792386" class="icon" viewBox="0 0 1024 1024" version="1.1" xmlns="http://www.w3.org/2000/svg" p-id="9604" xmlns:xlink="http://www.w3.org/1999/xlink" width="64" height="64"><defs><style type="text/css"></style></defs><path d="M526.4 79.4v0.5C756.1 91.3 938.9 281 938.9 513.5c0 7.3-0.2 14.5-0.5 21.7h0.5c0 12 9.7 21.7 21.7 21.7s21.7-9.7 21.7-21.7c0-1.3-0.1-2.6-0.3-3.8 0.2-5.9 0.3-11.9 0.3-17.9C982.3 259 783.1 51 532.2 36.8c-1.8-0.5-3.8-0.8-5.8-0.8-12 0-21.7 9.7-21.7 21.7-0.1 12 9.7 21.7 21.7 21.7z m0 868.2v-0.5c-7.2 0.4-14.4 0.5-21.7 0.5-232.6 0-422.4-182.7-433.7-412.4h-0.5c0-12-9.7-21.7-21.7-21.7s-21.7 9.7-21.7 21.7c0 2 0.3 4 0.8 5.8C42 791.9 250.1 991 504.6 991c6 0 11.9-0.1 17.9-0.3 1.2 0.2 2.5 0.3 3.8 0.3 12 0 21.7-9.7 21.7-21.7s-9.7-21.7-21.6-21.7z m419-219.2L557.7 340.8c13-79.9-11.2-164.7-72.9-226.3C399 28.7 268.1 15.2 168.2 74.2l11.9 11.9 0.1-0.1 123 123c17 17 17 44.5 0 61.5l-30.7 30.7c-17 17-44.5 17-61.5 0l-123-123-11.9-11.9c-59 99.9-45.6 230.7 40.3 316.5 61.6 61.6 146.5 85.9 226.4 72.9l387.7 387.6c50.9 50.9 133.4 50.9 184.2 0l30.7-30.7c50.8-50.9 50.8-133.4 0-184.2z m-30.7 153.4L884 912.5c-33.9 33.9-88.9 33.9-122.8 0L484.8 636.3l-128-128c-72.4 19.3-152.9 0.6-209.7-56.2-56.8-56.8-75.6-137.2-56.2-209.7l90.1 90.1c33.9 33.9 89 33.9 122.9 0l30.7-30.7c33.9-33.9 33.9-89 0-122.9l-90-90c72.4-19.3 152.8-0.5 209.6 56.2 56.8 56.8 75.6 137.3 56.2 209.7l128 128 276.3 276.3c33.9 33.9 33.9 88.8 0 122.7zM830.3 774c-24 0-43.4 19.4-43.4 43.4s19.4 43.4 43.4 43.4 43.4-19.4 43.4-43.4-19.4-43.4-43.4-43.4z" p-id="9605"></path></svg>