<?xml version="1.0" standalone="no"?><!DOCTYPE svg PUBLIC "-//W3C//DTD SVG 1.1//EN" "http://www.w3.org/Graphics/SVG/1.1/DTD/svg11.dtd"><svg t="1578534412682" class="icon" viewBox="0 0 1024 1024" version="1.1" xmlns="http://www.w3.org/2000/svg" p-id="4264" xmlns:xlink="http://www.w3.org/1999/xlink" width="40" height="40"><defs><style type="text/css"></style></defs><path d="M326.059 304.416h32.17V373.6h-32.17z m0 98.72h32.17v69.184h-32.17z m0 98.71h32.17v69.183h-32.17z" fill="#EFA220" p-id="4265"></path><path d="M210.773 273.91v470.037h32.171v-0.16h242.133V224.98l14.123-2.517-5.643-31.67-308.373 55.009 5.643 31.669z m32.171-5.74l209.93-37.45v480.896H358.23V600.533h-32.17v111.083h-83.126z" fill="#EFA220" p-id="4266"></path><path d="M867.584 701.13l-8.224-1.791-6.89 31.413 8.469 1.856c25.984 5.675 58.336 12.8 78.528 19.104l5.472 1.717-5.27 2.272c-23.402 10.07-58.496 22.966-123.157 33.494-76.896 12.501-179.712 18.837-305.696 18.837-139.115 2.848-239.883-6.688-299.979-15.2-76.149-10.773-121.898-24.608-139.37-33.963l-3.2-1.717 3.114-1.952c14.304-9.12 38.56-17.333 72.107-24.416l-6.539-31.488c-51.616 10.859-82.933 24.181-98.549 41.835a23.35 23.35 0 0 0-3.957 25.898c5.333 11.574 30.453 33.771 138.314 52.267 80 13.75 183.584 21.333 291.819 21.333 15.488 0 31.157-0.16 46.57-0.458 318.102 0 404.78-38.646 451.34-59.403l2.485-1.067c16.266-7.232 23.904-16.81 22.709-28.48-2.4-23.466-36.448-31.818-120.096-50.09z m-202.73-212.629h32.17V544.8h-32.17z m0 82.603h32.17v56.299h-32.17z" fill="#EFA220" p-id="4267"></path><path d="M501.088 468.736l23.701-2.133v258.133h283.552V440.864l8.651-0.779-2.901-32-315.958 28.608z m55.872-5.067l219.221-19.936v248.832h-79.168v-31.669h-32.16v31.67H556.96z" fill="#EFA220" p-id="4268"></path></svg>