<?xml version="1.0" standalone="no"?><!DOCTYPE svg PUBLIC "-//W3C//DTD SVG 1.1//EN" "http://www.w3.org/Graphics/SVG/1.1/DTD/svg11.dtd"><svg t="1578980716704" class="icon" viewBox="0 0 1024 1024" version="1.1" xmlns="http://www.w3.org/2000/svg" p-id="9018" xmlns:xlink="http://www.w3.org/1999/xlink" width="64" height="64"><defs><style type="text/css"></style></defs><path d="M84.5 349l416 193.2c4.3 2 8.9 3 13.5 3s9.2-1 13.5-3l414-193c11.2-5.2 18.4-16.4 18.5-28.7 0.1-12.3-6.9-23.6-18-29L528 90.2c-8.8-4.3-19.1-4.3-27.9 0l-416 201C73 296.6 65.9 307.9 66 320.3c0.1 12.3 7.3 23.5 18.5 28.7zM514 154.6l339.6 165.1L514 477.9 172.7 319.4 514 154.6z m392.7 330.3L512.4 691.3 113 479c-15.6-8.3-35-2.4-43.3 13.2-8.3 15.6-2.4 35 13.2 43.3l414.3 220.2c4.7 2.5 9.9 3.7 15 3.7s10.2-1.2 14.8-3.7l409.3-214.3c15.7-8.2 21.7-27.5 13.5-43.2-8.1-15.5-27.4-21.5-43.1-13.3z m0 167.7L512.4 859.1 113 646.8c-15.6-8.3-35-2.4-43.3 13.2-8.3 15.6-2.4 35 13.2 43.3l414.3 220.2c4.7 2.5 9.9 3.7 15 3.7s10.2-1.2 14.8-3.7l409.3-214.3C952 701 958 681.7 949.8 666c-8.1-15.5-27.4-21.6-43.1-13.4z" p-id="9019"></path></svg>