<?xml version="1.0" standalone="no"?><!DOCTYPE svg PUBLIC "-//W3C//DTD SVG 1.1//EN" "http://www.w3.org/Graphics/SVG/1.1/DTD/svg11.dtd"><svg t="1578981026080" class="icon" viewBox="0 0 1024 1024" version="1.1" xmlns="http://www.w3.org/2000/svg" p-id="20554" xmlns:xlink="http://www.w3.org/1999/xlink" width="64" height="64"><defs><style type="text/css"></style></defs><path d="M818 421.6c-5.6-59.6-44.6-109.6-98-131.3 24.3-18.1 40.2-47 40.2-79.6 0-54.7-44.5-99.3-99.3-99.3s-99.3 44.5-99.3 99.3c0 32.6 15.9 61.5 40.2 79.6-43 17.4-76.6 53.2-91 97.6-14.4-44.4-48-80.2-91-97.6 24.3-18.1 40.2-47 40.2-79.6 0-54.7-44.5-99.3-99.3-99.3s-99.3 44.5-99.3 99.3c0 32.6 15.9 61.5 40.2 79.6-53.4 21.6-91.3 71.7-96.9 131.3-37.3 10-63.8 44-63.8 84.4v316c0 48.2 37.1 90 85.4 90h568.9c48.2 0 87.7-41.8 87.7-90V506.1c0.1-40.5-27.6-74.5-64.9-84.5zM660.9 146.5c35.4 0 64.3 28.8 64.3 64.3S696.3 275 660.9 275s-64.3-28.8-64.3-64.3 28.8-64.2 64.3-64.2z m-16.5 166.9c-0.1 0.7 0.6 3.2 0.6 3.9v70.5c0 9.7 7.8 17.5 17.5 17.5s17.5-7.8 17.5-17.5v-70.5c0-0.7-0.9-3.2-1-3.9C732.6 321 774.2 366 782.1 415H539.6c7.9-49 51.2-94 104.8-101.6zM360.8 146.5c35.4 0 64.3 28.8 64.3 64.3S396.2 275 360.8 275s-64.3-28.8-64.3-64.3 28.8-64.2 64.3-64.2z m-16.9 166.9c-0.1 0.7 0.1 3.2 0.1 3.9v70.5c0 9.7 7.8 17.5 17.5 17.5s17.5-7.8 17.5-17.5v-70.5c0-0.7-0.5-3.2-0.6-3.9C432 321 474.1 366 482 415H239.5c7.9-49 50.8-94 104.4-101.6z m166.9 378.4c-43.8 0-79.4-35.6-79.4-79.4S467 533 510.8 533s79.4 35.6 79.4 79.4-35.6 79.4-79.4 79.4zM659.3 877h-297c3-84 68.4-143.1 148.5-143.1S656.3 793 659.3 877zM848 822c0 29-23.8 55-52.7 55H694.5c-2.4-77-51.8-142.9-120.3-168.1 30.8-20.5 51.1-56.2 51.1-95.9 0-63.1-51.3-114.8-114.4-114.8-63.1 0-114.4 51.2-114.4 114.3 0 39.7 20.3 75.9 51.1 96.4-68.5 25.2-118 91-120.3 168H226.4c-29 0-50.4-26.1-50.4-55V506.1c0-29 21.4-56.1 50.4-56.1h568.9c29 0 52.7 27.1 52.7 56.1V822z" p-id="20555"></path></svg>